<svg xmlns="http://www.w3.org/2000/svg" viewBox="0 0 128 128" role="img" aria-label="mole">
  <defs>
    <linearGradient id="body" x1="20" y1="20" x2="108" y2="118" gradientUnits="userSpaceOnUse">
      <stop offset="0" stop-color="#8a5a3d"/>
      <stop offset="1" stop-color="#4d2f24"/>
    </linearGradient>
  </defs>
  <path d="M27 95c0-27 12-52 37-52s37 25 37 52v16H27V95Z" fill="url(#body)"/>
  <path d="M31 46c-7-10-3-22 8-25 10-2 18 6 18 18" fill="#6b3f2e"/>
  <path d="M97 46c7-10 3-22-8-25-10-2-18 6-18 18" fill="#6b3f2e"/>
  <path d="M42 74c0-15 10-27 22-27s22 12 22 27-10 25-22 25-22-10-22-25Z" fill="#a97455"/>
  <circle cx="53" cy="66" r="5" fill="#16120f"/>
  <circle cx="75" cy="66" r="5" fill="#16120f"/>
  <circle cx="55" cy="64" r="1.5" fill="#fff"/>
  <circle cx="77" cy="64" r="1.5" fill="#fff"/>
  <path d="M58 80c2 3 10 3 12 0" fill="none" stroke="#2b1b15" stroke-width="4" stroke-linecap="round"/>
  <path d="M64 70c-5 0-8 3-8 6 0 4 4 6 8 6s8-2 8-6c0-3-3-6-8-6Z" fill="#ef9a9a"/>
  <path d="M40 95c10 8 38 8 48 0" fill="none" stroke="#3c251c" stroke-width="6" stroke-linecap="round"/>
</svg>
