<svg xmlns="http://www.w3.org/2000/svg" viewBox="0 0 128 128" role="img" aria-label="hit mole">
  <defs>
    <linearGradient id="body" x1="20" y1="20" x2="108" y2="118" gradientUnits="userSpaceOnUse">
      <stop offset="0" stop-color="#8a5a3d"/>
      <stop offset="1" stop-color="#4d2f24"/>
    </linearGradient>
  </defs>
  <path d="M27 95c0-27 12-52 37-52s37 25 37 52v16H27V95Z" fill="url(#body)"/>
  <path d="M31 47c-7-10-3-22 8-25 10-2 18 6 18 18" fill="#6b3f2e"/>
  <path d="M97 47c7-10 3-22-8-25-10-2-18 6-18 18" fill="#6b3f2e"/>
  <path d="M40 77c0-16 11-29 24-29s24 13 24 29c0 15-11 25-24 25S40 92 40 77Z" fill="#a97455"/>
  <path d="M48 65l10 10m0-10L48 75M70 65l10 10m0-10L70 75" stroke="#1f1511" stroke-width="5" stroke-linecap="round"/>
  <path d="M55 84c5 5 13 5 18 0" fill="none" stroke="#2b1b15" stroke-width="4" stroke-linecap="round"/>
  <ellipse cx="64" cy="78" rx="8" ry="6" fill="#ef9a9a"/>
  <path d="M38 96c11 8 41 8 52 0" fill="none" stroke="#3c251c" stroke-width="6" stroke-linecap="round"/>
  <path d="M38 29l7-9 4 11 12-4-7 10 8 8-13-1-4 12-4-12-13 1 8-8-7-10 13 4Z" fill="#ffd95a" stroke="#c67a1c" stroke-width="2"/>
  <path d="M86 22l5-7 3 8 8-3-5 7 6 6-9-1-3 8-3-8-9 1 6-6-5-7 8 3Z" fill="#ffe37a" stroke="#c67a1c" stroke-width="2"/>
</svg>
